<svg xmlns="http://www.w3.org/2000/svg" xmlns:xlink="http://www.w3.org/1999/xlink" width="217.04" height="60.075" viewBox="0 0 217.04 60.075">
  <defs>
    <linearGradient id="linear-gradient" x1="-0.447" y1="1.006" x2="1.464" y2="-0.015" gradientUnits="objectBoundingBox">
      <stop offset="0" stop-color="#fbb040"/>
      <stop offset="0.23" stop-color="#fbb63f"/>
      <stop offset="0.55" stop-color="#fac83a"/>
      <stop offset="0.92" stop-color="#f9e634"/>
      <stop offset="1" stop-color="#f9ed32"/>
    </linearGradient>
    <linearGradient id="linear-gradient-2" x1="0.49" y1="1.058" x2="0.523" y2="0.021" gradientUnits="objectBoundingBox">
      <stop offset="0" stop-color="#fbb040"/>
      <stop offset="1" stop-color="#f9ed32"/>
    </linearGradient>
    <linearGradient id="linear-gradient-3" x1="0.5" x2="0.5" y2="1" gradientUnits="objectBoundingBox">
      <stop offset="0" stop-color="#00c6ff"/>
      <stop offset="1" stop-color="#0072ff"/>
    </linearGradient>
  </defs>
  <g id="Group_13351" data-name="Group 13351" transform="translate(-141 -27)">
    <g id="Orginal_Logo" data-name="Orginal Logo" transform="translate(-30.1 -92.42)">
      <path id="Path_12059" data-name="Path 12059" d="M518.032,178.555h-4.549l-1.676-2.244a12.9,12.9,0,1,1,2.7-2.474Zm-7.611-20.032a9.244,9.244,0,1,0-.794,14.862l-3.569-4.769h4.551l1.626,2.178a9.244,9.244,0,0,0-1.817-12.271Z" transform="translate(-257.984 -26.837)" fill="#1e1e1e"/>
      <path id="Path_12060" data-name="Path 12060" d="M647.61,178.689V152.93h3.645v25.759Z" transform="translate(-383.521 -26.971)" fill="#1e1e1e"/>
      <path id="Path_12061" data-name="Path 12061" d="M696.925,177.107H693.27V151.19L708.1,167.84V151.334h3.655v26.079l-14.831-16.65Z" transform="translate(-420.27 -25.57)" fill="#1e1e1e"/>
      <path id="Path_12062" data-name="Path 12062" d="M818.485,178.689H814.84V152.93h15.417v3.647H818.485v10.356h10.358v3.645H818.485Z" transform="translate(-518.116 -26.971)" fill="#1e1e1e"/>
      <path id="Path_12063" data-name="Path 12063" d="M961.365,177.107H957.72V151.19l14.831,16.65V151.334H976.2v26.079l-14.831-16.65Z" transform="translate(-633.114 -25.57)" fill="#1e1e1e"/>
      <path id="Path_12064" data-name="Path 12064" d="M1079.29,178.689V152.93h3.651v25.759Z" transform="translate(-730.96 -26.971)" fill="#1e1e1e"/>
      <path id="Path_12065" data-name="Path 12065" d="M1118.626,156.527H1113V152.88h14.915v3.647h-5.634v22.122h-3.645Z" transform="translate(-758.091 -26.93)" fill="#1e1e1e"/>
      <path id="Path_12066" data-name="Path 12066" d="M1219.657,178.689H1204.24V152.93h15.417v3.645H1207.9v10.356h10.193v3.645H1207.9v4.475h11.765Z" transform="translate(-831.526 -26.971)" fill="#1e1e1e"/>
      <path id="Path_12067" data-name="Path 12067" d="M912.06,197.673h3.647V180.4l-3.647-4.092Z" transform="translate(-596.364 -45.788)" fill="#1e1e1e"/>
      <path id="Path_12068" data-name="Path 12068" d="M915.707,153.73H912.06v2.176L915.707,160Z" transform="translate(-596.364 -27.615)" fill="url(#linear-gradient)"/>
      <path id="Path_12069" data-name="Path 12069" d="M255.8,190.98l5.774,5.776,2.73,2.73-8.5-8.506Z" transform="translate(-68.171 -57.595)" fill="none"/>
      <path id="Path_12070" data-name="Path 12070" d="M321.876,204.97l-8.506,8.506h0l2.73,2.73,5.585,5.585,8.506-8.506Z" transform="translate(-114.506 -68.855)" fill="none"/>
      <path id="Path_12071" data-name="Path 12071" d="M213.193,210.746l-5.774-5.776-8.339,8.339,8.5,8.506,8.339-8.339h0Z" transform="translate(-22.52 -68.855)" fill="none"/>
      <path id="Path_12072" data-name="Path 12072" d="M258.64,130.633l5.729-5.731,5.776,5.776,2.752-2.754-8.5-8.5L255.91,127.9l2.73,2.73Z" transform="translate(-68.26)" fill="url(#linear-gradient-2)"/>
      <path id="Path_12073" data-name="Path 12073" d="M207.378,177l-2.761,2.752-8.483,8.483L193.4,185.5l-5.772-5.77h0L184.9,177l-2.732,2.732h0L171.1,190.8l13.965,13.967,11.069-11.069h0l2.732,2.732,8.317,8.313,13.967-13.967Zm-22.313,22.3-8.5-8.5,8.339-8.333,5.774,5.776,2.732,2.732h0Zm16.529-5.607-2.732-2.732h0l8.516-8.5,8.315,8.315-8.51,8.5Z" transform="translate(0 -46.343)" fill="url(#linear-gradient-3)"/>
    </g>
    <path id="Path_16265" data-name="Path 16265" d="M2.49,0H3.66L5.415-8.835H8.28l.2-1.005H1.59l-.2,1.005h2.85ZM8.115,0H9.27l1.02-5.16a3.575,3.575,0,0,1,2.19-1.3c.75,0,1.08.375,1.08,1.11a4.417,4.417,0,0,1-.12.855L12.525,0h1.17l.93-4.65a4.156,4.156,0,0,0,.12-1.005c0-1.125-.51-1.815-1.74-1.815A4.044,4.044,0,0,0,10.5-6.24h-.06l.255-.93.7-3.51H10.245Zm10.86.18a3.666,3.666,0,0,0,2.28-.8l-.42-.7a2.808,2.808,0,0,1-1.65.57c-1.245,0-2.22-.78-1.965-2.625h4.725a4.475,4.475,0,0,0,.27-1.455c0-1.5-.63-2.64-2.265-2.64-1.905,0-3.9,1.86-3.9,4.6A2.753,2.753,0,0,0,18.975.18Zm-1.62-4.44a2.762,2.762,0,0,1,2.46-2.28c1.05,0,1.41.78,1.41,1.605a2.371,2.371,0,0,1-.09.675ZM26.34,0h1.155l1.26-6.36H30.24l.195-.93h-1.47l.24-1.245c.165-.84.585-1.38,1.23-1.38a1.509,1.509,0,0,1,.84.225l.39-.81a2.477,2.477,0,0,0-1.305-.36c-1.23,0-2.01.9-2.31,2.355L27.81-7.29l-.975.075-.165.855h.945Zm6.12.18a4.034,4.034,0,0,0,2.505-1.29h.06L34.92,0h.945L37.32-7.29H36.165L35.13-2.13A3.465,3.465,0,0,1,32.985-.825c-.75,0-1.08-.375-1.08-1.125a4.146,4.146,0,0,1,.12-.84l.9-4.5H31.77l-.93,4.65a4.073,4.073,0,0,0-.12,1A1.583,1.583,0,0,0,32.46.18Zm8.07,0a2.92,2.92,0,0,0,1.4-.36l-.27-.78a1.623,1.623,0,0,1-.78.2c-.645,0-.885-.3-.885-.9a3.28,3.28,0,0,1,.045-.54L40.89-6.36h1.86l.195-.93H41.1l.45-2.325h-.975l-.6,2.325-1.14.075-.165.855h1.065L38.88-2.25a4.577,4.577,0,0,0-.075.78A1.515,1.515,0,0,0,40.53.18Zm4.485,0A4.034,4.034,0,0,0,47.52-1.11h.06L47.475,0h.945l1.455-7.29H48.72L47.685-2.13A3.465,3.465,0,0,1,45.54-.825c-.75,0-1.08-.375-1.08-1.125a4.146,4.146,0,0,1,.12-.84l.9-4.5H44.325L43.4-2.64a4.073,4.073,0,0,0-.12,1A1.583,1.583,0,0,0,45.015.18ZM50.79,0h1.155l.9-4.59c.63-1.2,1.425-1.83,2.16-1.83a1.555,1.555,0,0,1,.63.09l.4-1.005a1.689,1.689,0,0,0-.705-.135,2.935,2.935,0,0,0-2.25,1.575h-.06l.18-1.395h-.96Zm7.995.18a3.666,3.666,0,0,0,2.28-.8l-.42-.7a2.808,2.808,0,0,1-1.65.57c-1.245,0-2.22-.78-1.965-2.625h4.725a4.475,4.475,0,0,0,.27-1.455c0-1.5-.63-2.64-2.265-2.64-1.905,0-3.9,1.86-3.9,4.6A2.753,2.753,0,0,0,58.785.18Zm-1.62-4.44a2.762,2.762,0,0,1,2.46-2.28c1.05,0,1.41.78,1.41,1.605a2.371,2.371,0,0,1-.09.675ZM68.685.18c2,0,3.945-1.965,3.945-4.725,0-1.815-1.035-2.925-2.61-2.925-2,0-3.93,1.965-3.93,4.725C66.09-.93,67.11.18,68.685.18Zm.12-.96C67.8-.78,67.26-1.5,67.26-2.82c0-2.04,1.305-3.69,2.64-3.69,1.005,0,1.56.72,1.56,2.04C71.46-2.445,70.155-.78,68.805-.78ZM73.86,0h1.155l1.26-6.36H77.76l.195-.93h-1.47l.24-1.245c.165-.84.585-1.38,1.23-1.38a1.509,1.509,0,0,1,.84.225l.39-.81a2.477,2.477,0,0,0-1.305-.36c-1.23,0-2.01.9-2.31,2.355L75.33-7.29l-.975.075-.165.855h.945ZM83.865-5.655c.555-1.08,1.05-2.07,1.575-3.195h.06c.075,1.125.18,2.16.27,3.195l.15,1.68H83.01ZM79.695,0H80.97l1.56-3.06h3.48L86.28,0H87.5l-1.14-9.84H85ZM88.65,0h1.17L91.8-9.84H90.615Zm7.515.18c2.82,0,4.785-3.075,4.785-6.09,0-2.475-1.2-4.11-3.4-4.11-2.82,0-4.785,3.075-4.785,6.075C92.76-1.455,93.96.18,96.165.18Zm.06-1.02c-1.56,0-2.265-1.275-2.265-3.195C93.96-6.345,95.385-9,97.485-9c1.56,0,2.265,1.275,2.265,3.2C99.75-3.51,98.325-.84,96.225-.84Zm5,3.915h1.155l.45-2.385.27-1.56h.03A2.052,2.052,0,0,0,104.88.18c2.01,0,3.93-2.205,3.93-5.01,0-1.7-.81-2.64-2.1-2.64a4.135,4.135,0,0,0-2.505,1.14h-.045l.09-.96h-.96ZM104.835-.8A1.668,1.668,0,0,1,103.35-1.83l.7-3.48a3.311,3.311,0,0,1,2.235-1.185c.81,0,1.335.6,1.335,1.83C107.625-2.64,106.29-.8,104.835-.8Zm7,.975c1.56,0,2.73-.885,2.73-2.25,0-.87-.48-1.41-1.695-2.07-.75-.405-1.305-.75-1.305-1.32a1.22,1.22,0,0,1,1.305-1.11,2.176,2.176,0,0,1,1.6.72l.615-.615a2.835,2.835,0,0,0-2.19-1,2.256,2.256,0,0,0-2.43,2.145c0,.855.63,1.455,1.545,1.965,1.125.63,1.455.9,1.455,1.44a1.4,1.4,0,0,1-1.545,1.2,2.382,2.382,0,0,1-1.935-1l-.63.54A2.915,2.915,0,0,0,111.84.18ZM118.89,0h1.155l1.02-5.16a3.575,3.575,0,0,1,2.19-1.3c.75,0,1.08.375,1.08,1.11a4.417,4.417,0,0,1-.12.855L123.3,0h1.17l.93-4.65a5.069,5.069,0,0,0,.12-1.005c0-1.125-.51-1.815-1.74-1.815a3.969,3.969,0,0,0-2.535,1.275h-.06l.12-1.1h-.96Zm10.6.18c2,0,3.945-1.965,3.945-4.725,0-1.815-1.035-2.925-2.61-2.925-1.995,0-3.93,1.965-3.93,4.725C126.9-.93,127.92.18,129.495.18Zm.12-.96c-1.005,0-1.545-.72-1.545-2.04,0-2.04,1.3-3.69,2.64-3.69,1,0,1.56.72,1.56,2.04C132.27-2.445,130.965-.78,129.615-.78Zm5.88.78h1.47l1.725-3.96c.315-.72.57-1.455.87-2.3h.06c0,.84-.03,1.575,0,2.3L139.785,0h1.47l3.315-7.29h-1.095l-1.875,4.3c-.285.645-.57,1.365-.855,2.055h-.06c0-.69-.03-1.41-.045-2.055l-.255-4.3h-1.23l-1.89,4.3c-.27.645-.54,1.365-.81,2.055h-.06c-.03-.69-.03-1.41-.06-2.055l-.24-4.3H134.97Zm10.56-2.955h.81l1.29-5.73.3-1.38h-1.17ZM145.89.18a1.038,1.038,0,0,0,.99-1.035.7.7,0,0,0-.69-.78A1.08,1.08,0,0,0,145.17-.57.7.7,0,0,0,145.89.18Z" transform="translate(205 84)" fill="#747474"/>
  </g>
</svg>
